<?xml version="1.0" encoding="UTF-8" standalone="no"?><svg xmlns="http://www.w3.org/2000/svg" xmlns:xlink="http://www.w3.org/1999/xlink" contentScriptType="text/ecmascript" fill="#000000" width="381" zoomAndPan="magnify" contentStyleType="text/css" viewBox="0 0 380.9 97.6" height="98" preserveAspectRatio="xMidYMid meet" version="1"><g fill="#221f20"><path d="M4.7,59.7c1.8,1.1,4.5,2.1,7.3,2.1c4.2,0,6.6-2.2,6.6-5.4c0-3-1.7-4.7-6-6.3c-5.2-1.8-8.4-4.5-8.4-9 c0-4.9,4.1-8.6,10.2-8.6c3.2,0,5.6,0.8,7,1.6l-1.1,3.3c-1-0.6-3.1-1.5-6-1.5c-4.3,0-6,2.6-6,4.7c0,3,1.9,4.4,6.3,6.1 c5.4,2.1,8.1,4.7,8.1,9.3c0,4.9-3.6,9.1-11.1,9.1c-3.1,0-6.4-0.9-8.1-2L4.7,59.7z"/><path d="M32.9,35.5c0,1.4-1,2.5-2.6,2.5c-1.5,0-2.5-1.1-2.5-2.5c0-1.5,1.1-2.6,2.6-2.6C32,33,32.9,34.1,32.9,35.5z M28.3,64.7V41.9h4.1v22.7H28.3z"/><path d="M39.3,48.1c0-2.3,0-4.3-0.2-6.2h3.6l0.2,3.7h0.1c1.3-2.2,3.4-4.2,7.1-4.2c3.1,0,5.5,1.9,6.4,4.6h0.1 c0.7-1.3,1.6-2.3,2.5-3c1.4-1,2.9-1.6,5-1.6c3,0,7.5,2,7.5,9.9v13.4h-4V51.8c0-4.4-1.6-7-4.9-7c-2.3,0-4.2,1.7-4.9,3.8 c-0.2,0.6-0.3,1.3-0.3,2.1v14.1h-4V51.1c0-3.6-1.6-6.3-4.7-6.3c-2.6,0-4.5,2.1-5.1,4.1c-0.2,0.6-0.3,1.3-0.3,2v13.7h-4V48.1z"/><path d="M78.5,49.4c0-2.9-0.1-5.3-0.2-7.4h3.7l0.2,3.9h0.1c1.7-2.8,4.4-4.4,8.1-4.4c5.5,0,9.6,4.7,9.6,11.6 c0,8.2-5,12.2-10.3,12.2c-3,0-5.6-1.3-7-3.6h-0.1V74h-4.1V49.4z M82.6,55.4c0,0.6,0.1,1.2,0.2,1.7C83.6,60,86,62,89,62 c4.4,0,6.9-3.6,6.9-8.8c0-4.6-2.4-8.5-6.8-8.5c-2.8,0-5.5,2-6.3,5.1c-0.1,0.5-0.3,1.1-0.3,1.7V55.4z"/><path d="M105.3,31.3h4.1v33.4h-4.1V31.3z"/><path d="M121,35.5c0,1.4-1,2.5-2.6,2.5c-1.5,0-2.5-1.1-2.5-2.5c0-1.5,1.1-2.6,2.6-2.6C120,33,121,34.1,121,35.5z M116.4,64.7V41.9h4.1v22.7H116.4z"/><path d="M127.8,64.7V45.1h-3.2v-3.1h3.2v-1.1c0-3.2,0.7-6.1,2.6-7.9c1.6-1.5,3.6-2.1,5.5-2.1c1.5,0,2.7,0.3,3.5,0.7 l-0.6,3.2c-0.6-0.3-1.5-0.5-2.6-0.5c-3.5,0-4.4,3.1-4.4,6.6v1.2h5.5v3.1h-5.5v19.6H127.8z"/><path d="M142.6,41.9l5,13.4c0.5,1.5,1.1,3.3,1.5,4.7h0.1c0.4-1.4,0.9-3.1,1.5-4.7l4.5-13.3h4.4l-6.2,16.2 c-3,7.8-5,11.8-7.8,14.2c-2,1.8-4,2.5-5.1,2.7l-1-3.5c1-0.3,2.4-1,3.6-2c1.1-0.9,2.5-2.5,3.5-4.6c0.2-0.4,0.3-0.8,0.3-1 c0-0.2-0.1-0.6-0.3-1.1l-8.4-21H142.6z"/></g><g fill="#221f20"><path d="M175.1,33v13.3h15.3V33h4.1v31.7h-4.1V49.8h-15.3v14.9H171V33H175.1z"/><path d="M203.8,54.1c0.1,5.6,3.7,7.9,7.8,7.9c3,0,4.7-0.5,6.3-1.2l0.7,3c-1.5,0.7-3.9,1.4-7.6,1.4 c-7,0-11.2-4.6-11.2-11.5c0-6.9,4-12.3,10.7-12.3c7.4,0,9.4,6.5,9.4,10.7c0,0.8-0.1,1.5-0.1,1.9H203.8z M215.9,51.1 c0-2.6-1.1-6.7-5.7-6.7c-4.2,0-6,3.9-6.3,6.7H215.9z"/><path d="M237.6,64.7l-0.3-2.9h-0.1c-1.3,1.8-3.7,3.4-7,3.4c-4.6,0-7-3.2-7-6.5c0-5.5,4.9-8.5,13.7-8.5v-0.5 c0-1.9-0.5-5.3-5.2-5.3c-2.1,0-4.3,0.7-5.9,1.7l-0.9-2.7c1.9-1.2,4.6-2,7.5-2c7,0,8.6,4.7,8.6,9.3v8.5c0,2,0.1,3.9,0.4,5.5H237.6z M237,53.1c-4.5-0.1-9.6,0.7-9.6,5.1c0,2.7,1.8,3.9,3.9,3.9c3,0,4.8-1.9,5.5-3.8c0.1-0.4,0.2-0.9,0.2-1.3V53.1z"/><path d="M247.7,31.3h4.1v33.4h-4.1V31.3z"/><path d="M263.7,35.4v6.5h5.9v3.1h-5.9v12.3c0,2.8,0.8,4.4,3.1,4.4c1.1,0,1.9-0.1,2.4-0.3l0.2,3.1 c-0.8,0.3-2.1,0.6-3.7,0.6c-1.9,0-3.5-0.6-4.5-1.7c-1.2-1.2-1.6-3.2-1.6-5.9V45.1h-3.5v-3.1h3.5v-5.5L263.7,35.4z"/><path d="M274.3,31.3h4.1v14.2h0.1c0.7-1.2,1.7-2.2,3-2.9c1.2-0.7,2.7-1.2,4.2-1.2c3.1,0,7.9,1.9,7.9,9.7v13.5h-4.1 V51.6c0-3.7-1.4-6.8-5.3-6.8c-2.7,0-4.8,1.9-5.5,4.1c-0.2,0.6-0.3,1.2-0.3,2v13.7h-4.1V31.3z"/><path d="M316.6,63.8c-1.1,0.6-3.5,1.3-6.5,1.3c-6.9,0-11.3-4.7-11.3-11.6c0-7,4.8-12.1,12.2-12.1 c2.4,0,4.6,0.6,5.7,1.2l-0.9,3.2c-1-0.6-2.5-1.1-4.8-1.1c-5.2,0-8,3.9-8,8.6c0,5.3,3.4,8.5,7.9,8.5c2.3,0,3.9-0.6,5.1-1.1 L316.6,63.8z"/><path d="M334.1,64.7l-0.3-2.9h-0.1c-1.3,1.8-3.7,3.4-7,3.4c-4.6,0-7-3.2-7-6.5c0-5.5,4.9-8.5,13.7-8.5v-0.5 c0-1.9-0.5-5.3-5.2-5.3c-2.1,0-4.3,0.7-5.9,1.7l-0.9-2.7c1.9-1.2,4.6-2,7.5-2c7,0,8.6,4.7,8.6,9.3v8.5c0,2,0.1,3.9,0.4,5.5H334.1z M333.4,53.1c-4.5-0.1-9.6,0.7-9.6,5.1c0,2.7,1.8,3.9,3.9,3.9c3,0,4.8-1.9,5.5-3.8c0.1-0.4,0.2-0.9,0.2-1.3V53.1z"/></g><g><path fill="#221f20" d="M344.1,49c0-2.7,0-5-0.2-7.1h3.6l0.1,4.5h0.2c1-3.1,3.5-5,6.3-5c0.5,0,0.8,0,1.2,0.1v3.9 c-0.4-0.1-0.8-0.1-1.4-0.1c-2.9,0-5,2.2-5.5,5.3c-0.1,0.6-0.2,1.2-0.2,1.9v12.1h-4.1V49z"/></g><g><path fill="#221f20" d="M361.3,54.1c0.1,5.6,3.7,7.9,7.8,7.9c3,0,4.7-0.5,6.3-1.2l0.7,3c-1.5,0.7-3.9,1.4-7.6,1.4 c-7,0-11.2-4.6-11.2-11.5c0-6.9,4-12.3,10.7-12.3c7.4,0,9.4,6.5,9.4,10.7c0,0.8-0.1,1.5-0.1,1.9H361.3z M373.4,51.1 c0-2.6-1.1-6.7-5.7-6.7c-4.2,0-6,3.9-6.3,6.7H373.4z"/></g><path fill="#105299" d="M28.3,20.8c6.8-5.6,14.7-9.9,23-12.6s17-3.7,25.6-3.1c8.5,0.6,16.9,2.9,24.3,6.7c7.5,3.8,14,9.1,19.2,15.3 c-5.9-5.6-12.9-10-20.4-12.7c-7.5-2.8-15.5-3.9-23.3-3.6S61.4,13,54.4,16.2s-13.2,7.6-18.3,13L28.3,20.8"/><path fill="#d6b73e" d="M120.5,76.8c-6.8,5.6-14.7,9.9-23,12.6c-8.3,2.7-17,3.7-25.6,3.1c-8.5-0.6-16.9-2.9-24.3-6.7 c-7.5-3.8-14-9.1-19.2-15.3c5.9,5.6,12.9,10,20.4,12.7c7.5,2.8,15.5,3.9,23.3,3.6s15.5-2.2,22.4-5.4c6.9-3.2,13.2-7.6,18.3-13 L120.5,76.8"/></svg>